<svg width="24" height="24" viewBox="0 0 24 24" fill="none" xmlns="http://www.w3.org/2000/svg">
<path d="M20.9598 2.64575H6.4732C5.96092 2.64575 5.46963 2.84925 5.10739 3.21149C4.74516 3.57372 4.54165 4.06502 4.54165 4.5773V7.47462H2.61011V9.40617H4.54165V11.3377H2.61011V13.2693H4.54165V15.2008H2.61011V17.1324H4.54165V20.0297C4.54165 20.542 4.74516 21.0333 5.10739 21.3955C5.46963 21.7577 5.96092 21.9612 6.4732 21.9612H20.9598C21.2159 21.9612 21.4616 21.8595 21.6427 21.6784C21.8238 21.4972 21.9256 21.2516 21.9256 20.9955V3.61153C21.9256 3.35539 21.8238 3.10974 21.6427 2.92862C21.4616 2.7475 21.2159 2.64575 20.9598 2.64575V2.64575ZM13.2336 5.54211C14.8252 5.54211 16.1309 6.84687 16.1309 8.43943C16.1281 9.20707 15.822 9.94249 15.2793 10.4854C14.7366 11.0283 14.0013 11.3347 13.2336 11.3377C11.643 11.3377 10.3363 10.031 10.3363 8.43943C10.3363 6.84687 11.643 5.54211 13.2336 5.54211ZM19.0283 18.0981H7.43898V17.3738C7.43898 15.2307 10.0514 13.0278 13.2336 13.0278C16.4158 13.0278 19.0283 15.2307 19.0283 17.3738V18.0981Z" fill="#E26E26"/>
</svg>
