<svg width="92" height="92" viewBox="0 0 92 92" fill="none" xmlns="http://www.w3.org/2000/svg">
<g clip-path="url(#clip0_3_71)">
<path fill-rule="evenodd" clip-rule="evenodd" d="M45.6 0.199997C20.406 0.199997 0 20.606 0 45.8C0 65.978 13.053 83.021 31.179 89.063C33.459 89.462 34.314 88.094 34.314 86.897C34.314 85.814 34.257 82.223 34.257 78.404C22.8 80.513 19.836 75.611 18.924 73.046C18.411 71.735 16.188 67.688 14.25 66.605C12.654 65.75 10.374 63.641 14.193 63.584C17.784 63.527 20.349 66.89 21.204 68.258C25.308 75.155 31.863 73.217 34.485 72.02C34.884 69.056 36.081 67.061 37.392 65.921C27.246 64.781 16.644 60.848 16.644 43.406C16.644 38.447 18.411 34.343 21.318 31.151C20.862 30.011 19.266 25.337 21.774 19.067C21.774 19.067 25.593 17.87 34.314 23.741C37.962 22.715 41.838 22.202 45.714 22.202C49.59 22.202 53.466 22.715 57.114 23.741C65.835 17.813 69.654 19.067 69.654 19.067C72.162 25.337 70.566 30.011 70.11 31.151C73.017 34.343 74.784 38.39 74.784 43.406C74.784 60.905 64.125 64.781 53.979 65.921C55.632 67.346 57.057 70.082 57.057 74.357C57.057 80.456 57 85.358 57 86.897C57 88.094 57.855 89.519 60.135 89.063C69.1873 86.0067 77.0533 80.1888 82.6259 72.428C88.1986 64.6672 91.1973 55.3543 91.2 45.8C91.2 20.606 70.794 0.199997 45.6 0.199997Z" fill="#E26E26"/>
</g>
<defs>
<clipPath id="clip0_3_71">
<rect width="91.2" height="91.2" fill="white" transform="translate(0 0.199997)"/>
</clipPath>
</defs>
</svg>
