<svg width="24" height="24" viewBox="0 0 24 24" fill="none" xmlns="http://www.w3.org/2000/svg">
<path d="M21.7814 12.1451L12.4579 2.8284C12.3908 2.76114 12.3111 2.70777 12.2233 2.67136C12.1355 2.63495 12.0414 2.61621 11.9464 2.61621C11.8514 2.61621 11.7573 2.63495 11.6695 2.67136C11.5817 2.70777 11.502 2.76114 11.4348 2.8284L2.11134 12.1451C1.83971 12.4167 1.68579 12.7857 1.68579 13.1705C1.68579 13.9695 2.33542 14.6191 3.13445 14.6191H4.11682V21.2671C4.11682 21.6678 4.44051 21.9915 4.84116 21.9915H10.4977V16.9211H13.0329V21.9915H19.0516C19.4523 21.9915 19.7759 21.6678 19.7759 21.2671V14.6191H20.7583C21.1431 14.6191 21.5121 14.4675 21.7837 14.1936C22.3473 13.6277 22.3473 12.711 21.7814 12.1451V12.1451Z" fill="#E26E26"/>
</svg>
