<svg width="92" height="92" viewBox="0 0 92 92" fill="none" xmlns="http://www.w3.org/2000/svg">
<path d="M55.046 46.5898C55.046 41.661 51.0175 37.6503 46.0661 37.6503C41.1153 37.6503 37.087 41.661 37.087 46.5898C37.087 51.5199 41.1153 55.5297 46.0661 55.5297C51.0175 55.5297 55.046 51.5199 55.046 46.5898ZM68.3867 0.0547829H22.8129C10.2567 0.0547829 0.0415039 10.2256 0.0415039 22.7268V29.0439H33.5496C37.0853 26.5363 41.4035 25.0549 46.0661 25.0549C50.7286 25.0549 55.0475 26.5363 58.5834 29.0439H91.158V22.7268C91.158 10.2255 80.9427 0.0547829 68.3867 0.0547829ZM77.6088 21.6177C77.6088 23.0031 76.4707 24.1368 75.0787 24.1368H67.261C65.8692 24.1368 64.7308 23.0031 64.7308 21.6177V13.8336C64.7308 12.4482 65.8691 11.3144 67.261 11.3144H75.0787C76.4706 11.3144 77.6088 12.448 77.6088 13.8336V21.6177V21.6177ZM67.6965 46.5898C67.6965 58.4654 57.9926 68.1251 46.066 68.1251C34.1391 68.1251 24.4361 58.4654 24.4361 46.5898C24.4361 43.3204 25.1758 40.2199 26.4911 37.4408H0.0415039V68.4727C0.0415039 80.9749 10.2567 91.1448 22.8129 91.1448H68.3868C80.9428 91.1448 91.1581 80.9748 91.1581 68.4727V37.4408H65.6416C66.9569 40.2199 67.6965 43.3204 67.6965 46.5898Z" fill="#E26E26"/>
</svg>
