<svg width="92" height="92" viewBox="0 0 92 92" fill="none" xmlns="http://www.w3.org/2000/svg">
<path fill-rule="evenodd" clip-rule="evenodd" d="M3.79993 11.1844C3.79993 9.33201 4.53578 7.5555 5.84561 6.24567C7.15544 4.93585 8.93195 4.19999 10.7843 4.19999H80.4079C81.3259 4.19849 82.2352 4.37807 83.0837 4.72844C83.9322 5.07882 84.7032 5.59311 85.3527 6.24187C86.0021 6.89063 86.5173 7.66112 86.8686 8.50923C87.2199 9.35734 87.4004 10.2664 87.3999 11.1844V80.808C87.4009 81.7262 87.2209 82.6355 86.8701 83.484C86.5193 84.3325 86.0047 85.1035 85.3556 85.753C84.7065 86.4024 83.9358 86.9175 83.0875 87.2687C82.2391 87.62 81.3299 87.8005 80.4117 87.8H10.7843C9.8668 87.8 8.95827 87.6192 8.11064 87.268C7.263 86.9167 6.49288 86.4019 5.84427 85.753C5.19566 85.104 4.68127 84.3336 4.33049 83.4858C3.97972 82.6379 3.79943 81.7293 3.79993 80.8118V11.1844ZM36.8903 36.0744H48.2105V41.7592C49.8445 38.4912 54.0245 35.55 60.3059 35.55C72.3481 35.55 75.2019 42.0594 75.2019 54.0028V76.1264H63.0153V56.7236C63.0153 49.9216 61.3813 46.0836 57.2317 46.0836C51.4747 46.0836 49.0807 50.2218 49.0807 56.7236V76.1264H36.8903V36.0744ZM15.9903 75.6058H28.1807V35.55H15.9903V75.602V75.6058ZM29.9249 22.4856C29.9479 23.5293 29.7622 24.5672 29.3786 25.5382C28.9951 26.5092 28.4215 27.3938 27.6914 28.1401C26.9614 28.8864 26.0896 29.4794 25.1273 29.8842C24.1649 30.289 23.1314 30.4976 22.0874 30.4976C21.0434 30.4976 20.0099 30.289 19.0476 29.8842C18.0853 29.4794 17.2135 28.8864 16.4834 28.1401C15.7534 27.3938 15.1798 26.5092 14.7962 25.5382C14.4127 24.5672 14.2269 23.5293 14.2499 22.4856C14.295 20.4368 15.1406 18.4872 16.6055 17.0542C18.0704 15.6212 20.0382 14.8188 22.0874 14.8188C24.1367 14.8188 26.1045 15.6212 27.5694 17.0542C29.0343 18.4872 29.8798 20.4368 29.9249 22.4856V22.4856Z" fill="#E26E26"/>
</svg>
