<svg width="32" height="32" viewBox="0 0 32 32" fill="none" xmlns="http://www.w3.org/2000/svg">
<path fill-rule="evenodd" clip-rule="evenodd" d="M14.7756 31.9539C15.1798 31.9844 15.5881 32 16 32C16.4119 32 16.8202 31.9844 17.2244 31.9539C20.1295 31.734 22.818 30.7384 25.0832 29.1736C25.3971 28.9567 25.7029 28.7289 26 28.4907C26.3188 28.2352 26.6277 27.9676 26.9258 27.6888C30.0484 24.7689 32 20.6123 32 16C32 7.16344 24.8366 0 16 0C7.16344 0 0 7.16344 0 16C0 20.6123 1.95164 24.7689 5.07416 27.6888C5.37232 27.9676 5.68116 28.2352 6 28.4907C6.29711 28.7289 6.6029 28.9567 6.91682 29.1736C9.182 30.7384 11.8705 31.734 14.7756 31.9539ZM18.0462 29.5629C20.3467 29.2192 22.4583 28.3046 24.2362 26.9669L23.5791 25.1429H19.5656L18.0462 29.5629ZM20.3514 22.8571H22.7556L21.5253 19.442L20.3514 22.8571ZM22.6413 15.7962C22.6178 14.1989 22.3169 11.8939 21.4461 9.91473C20.5369 7.84843 18.8553 5.85714 16 5.85714C13.1447 5.85714 11.4631 7.84843 10.5539 9.91473C9.68308 11.8939 9.38218 14.1989 9.35866 15.7962L5.93074 25.3111C3.66613 22.8639 2.28571 19.5937 2.28571 16C2.28571 8.42581 8.42581 2.28571 16 2.28571C23.5742 2.28571 29.7143 8.42581 29.7143 16C29.7143 19.5937 28.3339 22.8639 26.0693 25.3111L22.6413 15.7962ZM7.76377 26.9669C9.54166 28.3046 11.6533 29.2192 13.9538 29.5629L12.4344 25.1429H8.42089L7.76377 26.9669ZM9.24436 22.8571H11.6486L10.4747 19.442L9.24436 22.8571ZM11.6444 15.8134L16 28.4844L20.3556 15.8134C20.3334 14.4202 20.063 12.4469 19.3539 10.8353C18.6131 9.15157 17.5447 8.14286 16 8.14286C14.4553 8.14286 13.3869 9.15157 12.6461 10.8353C11.937 12.4469 11.6666 14.4202 11.6444 15.8134Z" fill="#e26e26"/>
</svg>
