<svg width="62" height="62" viewBox="0 0 62 62" fill="none" xmlns="http://www.w3.org/2000/svg">
<circle cx="31" cy="31" r="29.5" stroke="#E26E26" stroke-width="3"/>
<path d="M41 44H40.83C21.18 42.87 18.39 26.29 18 21.23C17.9686 20.8366 18.0151 20.4408 18.1369 20.0654C18.2587 19.69 18.4533 19.3423 18.7097 19.0423C18.9661 18.7422 19.2792 18.4957 19.631 18.3168C19.9828 18.138 20.3665 18.0303 20.76 18H26.27C26.6706 17.9996 27.062 18.1195 27.3936 18.3442C27.7253 18.5688 27.9818 18.8879 28.13 19.26L29.65 23C29.7964 23.3635 29.8327 23.7621 29.7544 24.1461C29.6762 24.5301 29.4869 24.8827 29.21 25.16L27.08 27.31C27.4127 29.2007 28.3182 30.9437 29.6739 32.303C31.0296 33.6622 32.7701 34.5723 34.66 34.91L36.83 32.76C37.1115 32.4862 37.4674 32.3013 37.8533 32.2283C38.2392 32.1554 38.638 32.1977 39 32.35L42.77 33.86C43.1365 34.0129 43.4492 34.2714 43.6683 34.6027C43.8873 34.9339 44.0028 35.3229 44 35.72V41C44 41.7956 43.6839 42.5587 43.1213 43.1213C42.5587 43.6839 41.7957 44 41 44ZM21 20C20.7348 20 20.4804 20.1054 20.2929 20.2929C20.1054 20.4804 20 20.7348 20 21V21.08C20.46 27 23.41 41 40.94 42C41.0714 42.0081 41.2031 41.9902 41.3275 41.9473C41.4519 41.9045 41.5667 41.8374 41.6652 41.7501C41.7637 41.6628 41.8439 41.5568 41.9014 41.4384C41.9588 41.32 41.9924 41.1914 42 41.06V35.72L38.23 34.21L35.36 37.06L34.88 37C26.18 35.91 25 27.21 25 27.12L24.94 26.64L27.78 23.77L26.28 20H21Z" fill="#E26E26"/>
</svg>
