<svg width="24" height="24" viewBox="0 0 24 24" fill="none" xmlns="http://www.w3.org/2000/svg">
<path d="M19.8869 6.50885H16.9895V4.5773C16.9895 3.51205 16.1232 2.64575 15.058 2.64575H9.26335C8.1981 2.64575 7.3318 3.51205 7.3318 4.5773V6.50885H4.43448C3.36923 6.50885 2.50293 7.37515 2.50293 8.44039V11.3377H21.8184V8.44039C21.8184 7.37515 20.9521 6.50885 19.8869 6.50885ZM9.26335 4.5773H15.058V6.50885H9.26335V4.5773ZM14.0922 14.235H10.2291V12.3035H2.50293V19.0639C2.50293 20.1292 3.36923 20.9955 4.43448 20.9955H19.8869C20.9521 20.9955 21.8184 20.1292 21.8184 19.0639V12.3035H14.0922V14.235Z" fill="#E26E26"/>
</svg>
