<svg width="24" height="24" viewBox="0 0 24 24" fill="none" xmlns="http://www.w3.org/2000/svg">
<path d="M3.36157 20.9955H5.29312V15.2009H3.36157V20.9955ZM12.4978 21.9613L9.66807 21.3432L6.83836 20.6768C6.67458 20.6449 6.52743 20.5559 6.42308 20.4257C6.31514 20.2993 6.2568 20.138 6.25889 19.9718V16.1087C6.26163 15.9434 6.3194 15.7837 6.42308 15.6548C6.53094 15.5287 6.67655 15.4406 6.83836 15.4037L11.4548 14.8339L16.0808 14.2544L16.2257 14.7953L16.3705 15.3265C16.3731 15.5045 16.3227 15.6793 16.2257 15.8287C16.1369 15.9848 16.002 16.1097 15.8394 16.186L13.9078 16.6689L11.9763 17.1518L13.5408 17.7892L15.115 18.4169L17.3073 17.7988L19.4417 17.1325C19.6314 17.0845 19.8323 17.1122 20.0019 17.2097C20.0873 17.2558 20.1622 17.3191 20.2221 17.3956C20.2819 17.472 20.3253 17.56 20.3495 17.654L20.533 18.3976L20.7262 19.1316C20.77 19.3152 20.7424 19.5085 20.6489 19.6724C20.5496 19.8378 20.3906 19.9588 20.2047 20.0105L16.6989 20.9762L13.1931 21.942C13.0777 21.9568 12.9609 21.9568 12.8455 21.942C12.7314 21.9675 12.614 21.974 12.4978 21.9613V21.9613ZM9.15621 4.57739L7.22467 6.50894L5.29312 8.44049L7.22467 10.372L9.15621 12.3036L9.83226 11.6275L10.5083 10.9515L9.25279 9.69599L7.99729 8.44049L9.25279 7.18498L10.5083 5.92948L9.83226 5.25343L9.15621 4.57739ZM14.9509 4.57739L14.2748 5.25343L13.5988 5.92948L14.8543 7.18498L16.1098 8.44049L14.8543 9.69599L13.5988 10.9515L14.2748 11.6275L14.9509 12.3036L16.8824 10.372L18.814 8.44049L16.8824 6.50894L14.9509 4.57739V4.57739Z" fill="#E26E26"/>
</svg>
